# xmcd CD database file
# Copyright (C) 1996 Ti Kan
#
# Track frame offsets:
# 	150
# 	4887
# 	29212
# 	43897
# 	64942
# 	81277
# 	99915
# 	130485
# 	161960
# 	172647
# 	185850
# 	204612
# 	223117
#
# Disc length: 3233 seconds
#
# Revision: 1
# Processed by: cddbd v1.4b41PL1 Copyright (c) Steve Scherf et al.
# Submitted via: DiscPlay 3.4
#
DISCID=c40c9f0d
DTITLE=The Five Blind Boys Of Alabama featuring Clarence Fountain - Dee
DTITLE=p River
DYEAR=1900
DGENRE=
TTITLE0=Deep River (part one)
TTITLE1=Don't Play With God
TTITLE2=Reminiscing
TTITLE3=God Said It
TTITLE4=Look Where He Brought Me From
TTITLE5=Down On Bended Knees
TTITLE6=I Believe In You
TTITLE7=I'm Getting Better All The Time
TTITLE8=Brother Moses
TTITLE9=Every Time I Feel The Spirit
TTITLE10=Just A Closer Walk With Thee
TTITLE11=I've Got The Love Of Jesus
TTITLE12=Deep River (part two)
EXTD=
EXTT0=
EXTT1=
EXTT2=
EXTT3=
EXTT4=
EXTT5=
EXTT6=
EXTT7=
EXTT8=
EXTT9=
EXTT10=
EXTT11=
EXTT12=
PLAYORDER=
